<svg width="36" height="36" viewBox="0 0 36 36" fill="none" xmlns="http://www.w3.org/2000/svg">
<rect width="36" height="36" rx="4.21875" fill="white"/>
<path fill-rule="evenodd" clip-rule="evenodd" d="M19.896 6.0535L22.0056 2.3999L27.9864 5.8535L25.8776 9.5063C25.5072 10.1471 26.0616 10.9263 26.788 10.7863L30.8296 10.0063L32.1376 16.7879L28.096 17.5671C21.5584 18.8279 16.5672 11.8199 19.896 6.0535Z" fill="#3A724F"/>
<path fill-rule="evenodd" clip-rule="evenodd" d="M16.2416 30.7465L14.132 34.4001L8.1504 30.9473L10.26 27.2937C10.6304 26.6529 10.076 25.8737 9.3488 26.0137L5.308 26.7929L4 20.0121L8.0416 19.2329C14.5792 17.9721 19.5696 24.9801 16.2416 30.7465Z" fill="#DC8E43"/>
<path fill-rule="evenodd" clip-rule="evenodd" d="M16.424 6.0535L14.3152 2.3999L8.33361 5.8535L10.4432 9.5063C10.8128 10.1471 10.2592 10.9263 9.53201 10.7863L5.49041 10.0063L4.18401 16.7879L8.22481 17.5671C14.7632 18.8279 19.7544 11.8199 16.4248 6.0535H16.424Z" fill="#14424C"/>
<path fill-rule="evenodd" clip-rule="evenodd" d="M19.72 30.7465L21.828 34.4001L27.8096 30.9473L25.7 27.2937C25.3304 26.6529 25.884 25.8737 26.6112 26.0137L30.652 26.7929L31.96 20.0121L27.9184 19.2329C21.3808 17.9721 16.3904 24.9801 19.7184 30.7465H19.72Z" fill="#C85D1B"/>
</svg>
