<svg width="36" height="36" viewBox="0 0 36 36" fill="none" xmlns="http://www.w3.org/2000/svg">
<path d="M10.5 15.5H10C9.05719 15.5 8.58579 15.5 8.29289 15.7929C8 16.0858 8 16.5572 8 17.5V26C8 26.9428 8 27.4142 8.29289 27.7071C8.58579 28 9.05719 28 10 28H10.5C11.4428 28 11.9142 28 12.2071 27.7071C12.5 27.4142 12.5 26.9428 12.5 26V17.5C12.5 16.5572 12.5 16.0858 12.2071 15.7929C11.9142 15.5 11.4428 15.5 10.5 15.5Z" stroke="white" stroke-width="1.5"/>
<path d="M12.5 10.25C12.5 11.4926 11.4926 12.5 10.25 12.5C9.00736 12.5 8 11.4926 8 10.25C8 9.00736 9.00736 8 10.25 8C11.4926 8 12.5 9.00736 12.5 10.25Z" stroke="white" stroke-width="1.5"/>
<path d="M18.326 15.5H17.5C16.5572 15.5 16.0858 15.5 15.7929 15.7929C15.5 16.0858 15.5 16.5572 15.5 17.5V26C15.5 26.9428 15.5 27.4142 15.7929 27.7071C16.0858 28 16.5572 28 17.5 28H18C18.9428 28 19.4142 28 19.7071 27.7071C20 27.4142 20 26.9428 20 26L20.0001 22.5001C20.0001 20.8433 20.5281 19.5001 22.0879 19.5001C22.8677 19.5001 23.5 20.1717 23.5 21.0001V25.5001C23.5 26.4429 23.5 26.9143 23.7929 27.2072C24.0857 27.5001 24.5572 27.5001 25.5 27.5001H25.9987C26.9413 27.5001 27.4126 27.5001 27.7055 27.2073C27.9984 26.9145 27.9985 26.4432 27.9987 25.5006L28.0001 20.0002C28.0001 17.515 25.6364 15.5002 23.2968 15.5002C21.9649 15.5002 20.7767 16.1531 20.0001 17.174C20 16.5439 20 16.2289 19.8632 15.995C19.7765 15.8469 19.6531 15.7235 19.505 15.6369C19.2711 15.5 18.9561 15.5 18.326 15.5Z" stroke="white" stroke-width="1.5" stroke-linejoin="round"/>
</svg>
