<svg width="36" height="36" viewBox="0 0 36 36" fill="none" xmlns="http://www.w3.org/2000/svg">
<path d="M17.9854 21.4083L21.2268 25.0936C22.4277 26.4589 23.0282 27.1416 23.6567 26.9754C24.2852 26.8092 24.5008 25.9108 24.9318 24.1138L27.3229 14.1459C27.9868 11.3783 28.3187 9.99454 27.5808 9.312C26.843 8.62947 25.564 9.13725 23.0061 10.1528L11.1388 14.8645C9.09293 15.6767 8.07001 16.0829 8.00507 16.7808C7.99842 16.8522 7.99831 16.9241 8.00474 16.9955C8.06754 17.6937 9.08921 18.1033 11.1326 18.9223C12.0584 19.2934 12.5213 19.479 12.8532 19.8344C12.8905 19.8743 12.9264 19.9157 12.9608 19.9584C13.2666 20.3384 13.3971 20.8371 13.6581 21.8344L14.1465 23.701C14.4005 24.6715 14.5275 25.1568 14.8601 25.223C15.1927 25.2891 15.4823 24.8867 16.0614 24.0819L17.9854 21.4083ZM17.9854 21.4083L17.6676 21.0771C17.3059 20.7001 17.1251 20.5117 17.1251 20.2775C17.1251 20.0433 17.3059 19.8548 17.6676 19.4778L21.2406 15.7541" stroke="white" stroke-width="1.5" stroke-linecap="round" stroke-linejoin="round"/>
</svg>
