<svg width="64" height="64" viewBox="0 0 64 64" fill="none" xmlns="http://www.w3.org/2000/svg">
<rect width="64" height="64" rx="7" fill="white"/>
<path d="M54.2222 32.0001C54.2222 19.7271 44.2729 9.77783 32 9.77783C19.727 9.77783 9.77777 19.7271 9.77777 32.0001C9.77777 44.2729 19.727 54.2223 32 54.2223C33.8704 54.2223 36.4444 54.4807 36.4444 52.0001C36.4444 50.6467 35.7404 49.6027 35.0413 48.5654C34.0182 47.0478 33.0051 45.5452 34.2222 43.1112C35.7038 40.1483 38.1729 40.1483 41.9589 40.1483C43.852 40.1483 46.0742 40.1483 48.6667 39.7778C53.3355 39.1109 54.2222 36.2409 54.2222 32.0001Z" stroke="#14424C" stroke-width="3.33333"/>
<path d="M20.8889 38.6711L20.9082 38.6658" stroke="#14424C" stroke-width="4.44444" stroke-linecap="round" stroke-linejoin="round"/>
<path d="M26.4444 27.5556C28.2854 27.5556 29.7778 26.0632 29.7778 24.2222C29.7778 22.3813 28.2854 20.8889 26.4444 20.8889C24.6035 20.8889 23.1111 22.3813 23.1111 24.2222C23.1111 26.0632 24.6035 27.5556 26.4444 27.5556Z" stroke="#14424C" stroke-width="3.33333"/>
<path d="M42 29.7778C43.8409 29.7778 45.3333 28.2854 45.3333 26.4444C45.3333 24.6035 43.8409 23.1111 42 23.1111C40.159 23.1111 38.6667 24.6035 38.6667 26.4444C38.6667 28.2854 40.159 29.7778 42 29.7778Z" stroke="#14424C" stroke-width="3.33333"/>
</svg>
