<svg width="36" height="36" viewBox="0 0 36 36" fill="none" xmlns="http://www.w3.org/2000/svg">
<path d="M21.75 14.25C21.75 12.1789 20.0711 10.5 18 10.5C15.9289 10.5 14.25 12.1789 14.25 14.25C14.25 16.3211 15.9289 18 18 18C20.0711 18 21.75 16.3211 21.75 14.25Z" stroke="white" stroke-width="1.875" stroke-linecap="round" stroke-linejoin="round"/>
<path d="M30.5 18C30.5 11.0964 24.9035 5.5 18 5.5C11.0964 5.5 5.5 11.0964 5.5 18C5.5 24.9035 11.0964 30.5 18 30.5C24.9035 30.5 30.5 24.9035 30.5 18Z" stroke="white" stroke-width="1.875" stroke-linecap="round" stroke-linejoin="round"/>
<path d="M24.25 24.25C24.25 20.7983 21.4517 18 18 18C14.5482 18 11.75 20.7983 11.75 24.25" stroke="white" stroke-width="1.875" stroke-linecap="round" stroke-linejoin="round"/>
</svg>
