<svg width="519" height="117" viewBox="0 0 519 117" fill="none" xmlns="http://www.w3.org/2000/svg">
<path fill-rule="evenodd" clip-rule="evenodd" d="M60.9182 19.1076L67.6795 7.39771L86.8481 18.4666L80.0894 30.1739C78.9022 32.2277 80.6791 34.725 83.0072 34.2763L95.9606 31.7764L100.153 53.5116L87.1994 56.0089C66.2462 60.0498 50.2493 37.589 60.9182 19.1076Z" fill="#3A724F"/>
<path fill-rule="evenodd" clip-rule="evenodd" d="M49.2058 98.2485L42.4445 109.958L23.2733 98.8921L30.0346 87.1822C31.2218 85.1285 29.4449 82.6311 27.1142 83.0798L14.1634 85.5772L9.97118 63.8445L22.9246 61.3472C43.8778 57.3063 59.8721 79.7671 49.2058 98.2485Z" fill="#DC8E43"/>
<path fill-rule="evenodd" clip-rule="evenodd" d="M49.7904 19.1076L43.0316 7.39771L23.8605 18.4666L30.6218 30.1739C31.8064 32.2277 30.0321 34.725 27.7014 34.2763L14.748 31.7764L10.5609 53.5116L23.5118 56.0089C44.4675 60.0498 60.4644 37.589 49.793 19.1076H49.7904Z" fill="#14424C"/>
<path fill-rule="evenodd" clip-rule="evenodd" d="M60.3541 98.2485L67.1103 109.958L86.2815 98.8921L79.5202 87.1822C78.3356 85.1285 80.1099 82.6311 82.4406 83.0798L95.3915 85.5772L99.5836 63.8445L86.6302 61.3472C65.6771 57.3063 49.6827 79.7671 60.349 98.2485H60.3541Z" fill="#C85D1B"/>
<path d="M126.979 81.4036V72.0705H146.911C147.8 72.0705 148.6 71.8483 149.311 71.4039C150.022 70.9595 150.578 70.3817 150.978 69.6706C151.422 68.9595 151.645 68.1818 151.645 67.3374C151.645 66.4485 151.422 65.6485 150.978 64.9374C150.578 64.2264 150.022 63.6486 149.311 63.2042C148.6 62.7597 147.8 62.5375 146.911 62.5375H139.712C137.001 62.5375 134.534 62.0042 132.312 60.9376C130.09 59.8709 128.312 58.3154 126.979 56.2711C125.69 54.1822 125.045 51.6934 125.045 48.8046C125.045 45.9603 125.668 43.4937 126.912 41.4049C128.156 39.3161 129.845 37.6939 131.979 36.5384C134.112 35.3384 136.467 34.7384 139.045 34.7384H159.644V44.0715H140.312C139.512 44.0715 138.778 44.2715 138.112 44.6714C137.445 45.0714 136.934 45.6047 136.578 46.2714C136.223 46.938 136.045 47.6713 136.045 48.4713C136.045 49.2713 136.223 50.0046 136.578 50.6712C136.934 51.2934 137.445 51.8045 138.112 52.2045C138.778 52.6045 139.512 52.8045 140.312 52.8045H147.845C150.822 52.8045 153.4 53.3823 155.578 54.5378C157.8 55.6489 159.511 57.2266 160.711 59.271C161.955 61.2709 162.578 63.6264 162.578 66.3374C162.578 69.5373 161.933 72.2705 160.644 74.5371C159.4 76.7593 157.711 78.4703 155.578 79.6703C153.445 80.8258 151.089 81.4036 148.511 81.4036H126.979ZM182.301 82.2035C179.279 82.2035 176.612 81.4258 174.301 79.8703C171.99 78.3148 170.19 76.226 168.901 73.6038C167.612 70.9372 166.968 67.9373 166.968 64.6041C166.968 61.1376 167.724 58.0488 169.235 55.3378C170.746 52.5823 172.879 50.4046 175.634 48.8046C178.434 47.2047 181.723 46.4047 185.501 46.4047C189.323 46.4047 192.567 47.2047 195.234 48.8046C197.945 50.3601 200.011 52.5156 201.434 55.2711C202.9 57.9821 203.633 61.0265 203.633 64.4041V81.4036H193.5V75.9371H193.234C192.612 77.137 191.812 78.2259 190.834 79.2036C189.856 80.1369 188.656 80.8702 187.234 81.4036C185.856 81.9369 184.212 82.2035 182.301 82.2035ZM185.367 73.2705C186.923 73.2705 188.278 72.8927 189.434 72.1372C190.634 71.3372 191.545 70.2484 192.167 68.8706C192.789 67.4929 193.101 65.9596 193.101 64.2708C193.101 62.6264 192.789 61.1376 192.167 59.8043C191.545 58.471 190.634 57.4266 189.434 56.671C188.278 55.8711 186.923 55.4711 185.367 55.4711C183.767 55.4711 182.368 55.8711 181.168 56.671C179.968 57.4266 179.057 58.471 178.434 59.8043C177.812 61.1376 177.501 62.6264 177.501 64.2708C177.501 65.9596 177.812 67.4929 178.434 68.8706C179.057 70.2484 179.968 71.3372 181.168 72.1372C182.368 72.8927 183.767 73.2705 185.367 73.2705ZM229.341 46.4047C232.23 46.4047 234.785 46.8714 237.007 47.8047C239.274 48.6935 241.185 49.9824 242.741 51.6712C244.34 53.3156 245.563 55.2711 246.407 57.5377C247.252 59.7598 247.674 62.2264 247.674 64.9374C247.674 68.3151 246.963 71.315 245.54 73.9371C244.163 76.5148 242.252 78.537 239.807 80.0036C237.363 81.4702 234.519 82.2035 231.274 82.2035C229.897 82.2035 228.585 82.0258 227.341 81.6702C226.141 81.3147 225.03 80.8036 224.008 80.1369C223.03 79.4703 222.208 78.6481 221.541 77.6704H221.341V95.8698H211.008V64.9374C211.008 61.1598 211.764 57.8932 213.275 55.1378C214.786 52.3823 216.919 50.249 219.675 48.738C222.43 47.1825 225.652 46.4047 229.341 46.4047ZM229.341 55.3378C227.741 55.3378 226.341 55.7377 225.141 56.5377C223.986 57.2932 223.097 58.3599 222.475 59.7376C221.852 61.0709 221.541 62.582 221.541 64.2708C221.541 65.9596 221.852 67.4707 222.475 68.804C223.097 70.1373 223.986 71.2039 225.141 72.0039C226.341 72.7594 227.741 73.1372 229.341 73.1372C230.941 73.1372 232.319 72.7594 233.474 72.0039C234.63 71.2039 235.519 70.1373 236.141 68.804C236.807 67.4707 237.141 65.9596 237.141 64.2708C237.141 62.582 236.807 61.0709 236.141 59.7376C235.519 58.3599 234.63 57.2932 233.474 56.5377C232.319 55.7377 230.941 55.3378 229.341 55.3378ZM253.787 81.4036V47.2047H264.186V81.4036H253.787ZM258.986 43.3382C257.342 43.3382 255.92 42.7382 254.72 41.5382C253.52 40.3383 252.92 38.9161 252.92 37.2717C252.92 35.6273 253.52 34.2051 254.72 33.0052C255.92 31.7608 257.342 31.1386 258.986 31.1386C260.631 31.1386 262.053 31.7608 263.253 33.0052C264.453 34.2051 265.053 35.6273 265.053 37.2717C265.053 38.9161 264.453 40.3383 263.253 41.5382C262.053 42.7382 260.631 43.3382 258.986 43.3382ZM285.488 82.2035C282.465 82.2035 279.799 81.4258 277.488 79.8703C275.177 78.3148 273.377 76.226 272.088 73.6038C270.799 70.9372 270.155 67.9373 270.155 64.6041C270.155 61.1376 270.91 58.0488 272.421 55.3378C273.932 52.5823 276.066 50.4046 278.821 48.8046C281.621 47.2047 284.91 46.4047 288.687 46.4047C292.51 46.4047 295.754 47.2047 298.42 48.8046C301.131 50.3601 303.198 52.5156 304.62 55.2711C306.087 57.9821 306.82 61.0265 306.82 64.4041V81.4036H296.687V75.9371H296.421C295.798 77.137 294.998 78.2259 294.021 79.2036C293.043 80.1369 291.843 80.8702 290.421 81.4036C289.043 81.9369 287.399 82.2035 285.488 82.2035ZM288.554 73.2705C290.11 73.2705 291.465 72.8927 292.621 72.1372C293.821 71.3372 294.732 70.2484 295.354 68.8706C295.976 67.4929 296.287 65.9596 296.287 64.2708C296.287 62.6264 295.976 61.1376 295.354 59.8043C294.732 58.471 293.821 57.4266 292.621 56.671C291.465 55.8711 290.11 55.4711 288.554 55.4711C286.954 55.4711 285.554 55.8711 284.354 56.671C283.154 57.4266 282.243 58.471 281.621 59.8043C280.999 61.1376 280.688 62.6264 280.688 64.2708C280.688 65.9596 280.999 67.4929 281.621 68.8706C282.243 70.2484 283.154 71.3372 284.354 72.1372C285.554 72.8927 286.954 73.2705 288.554 73.2705ZM314.462 81.4036V61.7375C314.462 58.8932 315.15 56.3155 316.528 54.0045C317.906 51.6934 319.861 49.849 322.395 48.4713C324.972 47.0936 328.017 46.4047 331.528 46.4047C335.083 46.4047 338.105 47.0936 340.594 48.4713C343.127 49.849 345.061 51.6934 346.394 54.0045C347.727 56.3155 348.394 58.8932 348.394 61.7375V81.4036H338.061V62.0042C338.061 60.8042 337.772 59.7154 337.194 58.7376C336.616 57.7155 335.816 56.9155 334.794 56.3377C333.817 55.7155 332.705 55.4044 331.461 55.4044C330.172 55.4044 329.017 55.7155 327.994 56.3377C327.017 56.9155 326.239 57.7155 325.661 58.7376C325.083 59.7154 324.795 60.8042 324.795 62.0042V81.4036H314.462ZM393.998 81.4036C391.153 81.4036 388.642 80.7814 386.464 79.537C384.331 78.2481 382.642 76.5371 381.398 74.4038C380.198 72.2705 379.598 69.8928 379.598 67.2707V44.0715H366.932V34.7384H403.397V44.0715H390.798V68.2707C390.798 69.2929 391.153 70.1817 391.864 70.9372C392.575 71.6928 393.464 72.0705 394.531 72.0705H398.197V81.4036H393.998ZM422.82 81.4036C418.953 81.4036 415.553 80.6925 412.62 79.2703C409.687 77.8037 407.398 75.8037 405.753 73.2705C404.153 70.6928 403.353 67.7151 403.353 64.3375C403.353 60.6043 404.131 57.4044 405.687 54.7378C407.242 52.0712 409.309 50.0268 411.887 48.6046C414.509 47.138 417.397 46.4047 420.553 46.4047C424.153 46.4047 427.153 47.1602 429.553 48.6713C431.997 50.1824 433.841 52.249 435.086 54.8711C436.33 57.4488 436.952 60.4043 436.952 63.7375C436.952 64.3152 436.908 65.0041 436.819 65.8041C436.775 66.5596 436.708 67.1596 436.619 67.604H414.22C414.486 68.7595 414.998 69.7373 415.753 70.5373C416.509 71.3372 417.464 71.9372 418.62 72.3372C419.775 72.6927 421.064 72.8705 422.486 72.8705H432.952V81.4036H422.82ZM413.953 61.1376H426.953C426.864 60.4265 426.73 59.7376 426.553 59.071C426.375 58.4043 426.086 57.8266 425.686 57.3377C425.331 56.8044 424.908 56.3599 424.419 56.0044C423.931 55.6044 423.353 55.2933 422.686 55.0711C422.064 54.8489 421.353 54.7378 420.553 54.7378C419.531 54.7378 418.62 54.9155 417.82 55.2711C417.02 55.6266 416.353 56.1155 415.82 56.7377C415.286 57.3155 414.864 58.0043 414.553 58.8043C414.286 59.5598 414.086 60.3376 413.953 61.1376ZM459.772 81.4036C456.217 81.4036 453.062 80.6703 450.306 79.2036C447.551 77.6926 445.373 75.6704 443.773 73.1372C442.173 70.5595 441.373 67.6262 441.373 64.3375C441.373 61.0487 442.173 58.1377 443.773 55.6044C445.373 53.0267 447.551 50.9823 450.306 49.4713C453.062 47.9602 456.217 47.2047 459.772 47.2047H464.906V55.9377H460.172C458.439 55.9377 456.95 56.3155 455.706 57.071C454.461 57.7821 453.484 58.7821 452.773 60.0709C452.106 61.3153 451.773 62.7375 451.773 64.3375C451.773 65.9374 452.106 67.3818 452.773 68.6707C453.484 69.9151 454.461 70.915 455.706 71.6706C456.95 72.3816 458.439 72.7372 460.172 72.7372H464.906V81.4036H459.772ZM470.641 81.4036V32.7385H480.974V49.4713C482.308 48.4047 483.774 47.6269 485.374 47.138C486.974 46.6492 488.574 46.4047 490.174 46.4047C493.285 46.4047 495.907 47.0714 498.04 48.4047C500.218 49.7379 501.84 51.5601 502.907 53.8711C504.018 56.1822 504.574 58.8043 504.574 61.7375V81.4036H494.241V62.1375C494.241 60.8487 493.929 59.7154 493.307 58.7376C492.73 57.7155 491.93 56.9155 490.907 56.3377C489.93 55.7155 488.841 55.4044 487.641 55.4044C486.441 55.4044 485.33 55.6933 484.308 56.2711C483.285 56.8488 482.463 57.6266 481.841 58.6043C481.263 59.5821 480.974 60.6931 480.974 61.9375V81.4036H470.641Z" fill="white"/>
</svg>
